<svg width="186" height="61" viewBox="0 0 186 61" fill="none" xmlns="http://www.w3.org/2000/svg">
<path d="M7.9476 33.5734H2.62598V34.2117H7.9476V33.5734Z" fill="#FF5E14"/>
<path d="M7.9476 37.5392H2.62598V38.1775H7.9476V37.5392Z" fill="#FF5E14"/>
<path d="M7.9476 41.5054H2.62598V42.1437H7.9476V41.5054Z" fill="#FF5E14"/>
<path d="M7.94646 45.4727H5.26526V46.111H7.94646V45.4727Z" fill="#FF5E14"/>
<path d="M7.9476 49.4386H2.62598V50.0769H7.9476V49.4386Z" fill="#FF5E14"/>
<path d="M7.9476 53.4045H2.62598V54.0428H7.9476V53.4045Z" fill="#FF5E14"/>
<path d="M7.94646 57.3705H5.26526V58.0088H7.94646V57.3705Z" fill="#FF5E14"/>
<path d="M15.8497 16.0393H14.5829V39.619H15.8497V16.0393Z" fill="#FF5E14"/>
<path d="M19.9789 16.0393H18.712V39.619H19.9789V16.0393Z" fill="#FF5E14"/>
<path d="M59.9955 33.473C59.7736 20.5749 51.8595 7.82805 34.1083 7.82805H17.9143V0H16.6475V7.93446L13.7683 9.99002L9.28406 13.1918V29.3219L0 24.0766V60.0126H1.26683V26.2567L9.28406 30.7862V60.0126H10.5713V30.0499L10.5509 30.039V13.852L13.7683 11.5547L17.2809 9.04687L24.0097 13.852V40.5525C23.8238 40.5622 23.639 40.5767 23.4579 40.5949C20.2104 40.9225 17.8111 42.5815 17.8111 44.6383H19.078C19.078 43.9648 19.6214 43.2756 20.5679 42.7472C21.3657 42.3022 22.3638 42.0035 23.4579 41.8802C23.843 41.8355 24.2389 41.8125 24.6431 41.8125C26.1931 41.8125 27.641 42.145 28.7195 42.7472C29.666 43.2756 30.2083 43.9648 30.2083 44.6383V46.8474C28.9799 45.8148 26.9644 45.1534 24.6431 45.1534C24.2377 45.1534 23.8418 45.1739 23.4579 45.2126C20.2104 45.5403 17.8111 47.198 17.8111 49.256H19.078C19.078 48.5825 19.6214 47.8933 20.5679 47.3649C21.3657 46.9187 22.3638 46.6213 23.4579 46.4967C23.843 46.452 24.2389 46.4302 24.6431 46.4302C26.1931 46.4302 27.641 46.7615 28.7195 47.3649C29.666 47.8933 30.2083 48.5825 30.2083 49.256V51.4639C29.7872 51.1097 29.2738 50.8001 28.6871 50.545C27.5619 50.0565 26.1691 49.7711 24.6431 49.7711C24.2377 49.7711 23.8418 49.7917 23.4579 49.8304C20.2104 50.1581 17.8111 51.8158 17.8111 53.8738H19.078C19.078 53.2003 19.6214 52.5111 20.5679 51.9827C21.6464 51.3793 23.0932 51.048 24.6431 51.048C26.1931 51.048 27.641 51.3793 28.7195 51.9827C29.666 52.5111 30.2083 53.2003 30.2083 53.8738V56.0817C28.9799 55.0491 26.9644 54.3877 24.6431 54.3877C20.8127 54.3877 17.8111 56.1905 17.8111 58.4915H19.078C19.078 57.818 19.6214 57.1288 20.5679 56.6004C21.6464 55.997 23.0932 55.6657 24.6431 55.6657C26.1931 55.6657 27.641 55.997 28.7195 56.6004C29.666 57.1288 30.2083 57.818 30.2083 58.4915V60.0126H31.4751H34.1083C52.2302 60.0126 60.2174 46.6684 59.9955 33.473ZM34.1083 50.545H31.4751V44.6383C31.4751 42.4666 28.7999 40.7388 25.2765 40.5525V17.1458H34.1083C45.3514 17.1458 50.0852 25.2725 50.3071 33.398C50.5291 41.8971 45.8685 50.545 34.1083 50.545Z" fill="#FF5E14"/>
<path d="M63.964 56V28.076H69.892L71.66 32.34C72.6653 31.0573 73.792 29.9653 75.04 29.064C76.3227 28.1627 77.8307 27.712 79.564 27.712C79.9453 27.712 80.3267 27.7293 80.708 27.764C81.124 27.7987 81.5053 27.868 81.852 27.972V35.876C81.332 35.8067 80.7773 35.7547 80.188 35.72C79.6333 35.6507 79.096 35.616 78.576 35.616C77.5707 35.616 76.652 35.7373 75.82 35.98C75.0227 36.188 74.2773 36.5173 73.584 36.968C72.9253 37.384 72.284 37.9387 71.66 38.632V56H63.964ZM86.8883 23.968C86.1603 23.968 85.7963 23.6213 85.7963 22.928V17.832C85.7963 17.104 86.1603 16.74 86.8883 16.74H92.8163C93.1283 16.74 93.3709 16.844 93.5443 17.052C93.7176 17.26 93.8043 17.52 93.8043 17.832V22.928C93.8043 23.6213 93.4749 23.968 92.8163 23.968H86.8883ZM85.9523 56V28.076H93.6483V56H85.9523ZM108.298 56.104C106.322 56.104 104.675 55.792 103.358 55.168C102.075 54.5093 101.122 53.5213 100.498 52.204C99.8737 50.852 99.5617 49.1187 99.5617 47.004V16.324H107.258V45.86C107.258 46.9 107.362 47.732 107.57 48.356C107.778 48.9453 108.09 49.3787 108.506 49.656C108.956 49.9333 109.511 50.124 110.17 50.228L112.302 50.54V56.104H108.298ZM124.598 56.104C122.622 56.104 120.976 55.792 119.658 55.168C118.376 54.5093 117.422 53.5213 116.798 52.204C116.174 50.852 115.862 49.1187 115.862 47.004V16.324H123.558V45.86C123.558 46.9 123.662 47.732 123.87 48.356C124.078 48.9453 124.39 49.3787 124.806 49.656C125.257 49.9333 125.812 50.124 126.47 50.228L128.602 50.54V56.104H124.598ZM143.915 56.26C140.83 56.26 138.369 55.8613 136.531 55.064C134.694 54.232 133.359 52.776 132.527 50.696C131.73 48.616 131.331 45.7387 131.331 42.064C131.331 38.2853 131.713 35.356 132.475 33.276C133.238 31.196 134.521 29.74 136.323 28.908C138.126 28.076 140.57 27.66 143.655 27.66C146.429 27.66 148.647 27.9373 150.311 28.492C151.975 29.0467 153.171 30.0173 153.899 31.404C154.662 32.7907 155.043 34.7493 155.043 37.28C155.043 39.152 154.662 40.6427 153.899 41.752C153.171 42.8267 152.131 43.6067 150.779 44.092C149.427 44.5427 147.833 44.768 145.995 44.768H138.975C139.045 46.1893 139.253 47.3333 139.599 48.2C139.981 49.032 140.657 49.6387 141.627 50.02C142.633 50.3667 144.071 50.54 145.943 50.54H154.107V55.064C152.755 55.3413 151.265 55.6187 149.635 55.896C148.041 56.1387 146.134 56.26 143.915 56.26ZM138.871 40.192H145.215C146.255 40.192 147.018 39.984 147.503 39.568C147.989 39.152 148.231 38.4067 148.231 37.332C148.231 36.3267 148.075 35.5293 147.763 34.94C147.451 34.316 146.966 33.8827 146.307 33.64C145.649 33.3627 144.765 33.224 143.655 33.224C142.477 33.224 141.541 33.432 140.847 33.848C140.154 34.2293 139.651 34.9227 139.339 35.928C139.027 36.9333 138.871 38.3547 138.871 40.192ZM160.093 56V28.076H166.021L167.789 32.34C168.794 31.0573 169.921 29.9653 171.169 29.064C172.452 28.1627 173.96 27.712 175.693 27.712C176.074 27.712 176.456 27.7293 176.837 27.764C177.253 27.7987 177.634 27.868 177.981 27.972V35.876C177.461 35.8067 176.906 35.7547 176.317 35.72C175.762 35.6507 175.225 35.616 174.705 35.616C173.7 35.616 172.781 35.7373 171.949 35.98C171.152 36.188 170.406 36.5173 169.713 36.968C169.054 37.384 168.413 37.9387 167.789 38.632V56H160.093Z" fill="#0E121D"/>
</svg>
